<svg xmlns="http://www.w3.org/2000/svg" viewBox="0 0 72 72" role="img" aria-labelledby="title desc">
  <title id="title">Aurora HY</title>
  <desc id="desc">Aurora horizon signal brand mark</desc>
  <defs>
    <linearGradient id="main" x1="8" y1="8" x2="62" y2="64" gradientUnits="userSpaceOnUse">
      <stop offset="0" stop-color="#dffbff"/>
      <stop offset=".34" stop-color="#63ddff"/>
      <stop offset=".7" stop-color="#7f74ff"/>
      <stop offset="1" stop-color="#d7a9ff"/>
    </linearGradient>
    <linearGradient id="gold" x1="36" y1="4" x2="36" y2="68" gradientUnits="userSpaceOnUse">
      <stop stop-color="#fff"/>
      <stop offset=".62" stop-color="#7ae7ff"/>
      <stop offset="1" stop-color="#e6bb68"/>
    </linearGradient>
  </defs>
  <g fill="none" stroke-linecap="round" stroke-linejoin="round">
    <path d="M36 6 38.4 16.6 47 12 41.8 21 52 23.7 41.8 26.4 47 35 38.4 30.6 36 42 33.6 30.6 25 35 30.2 26.4 20 23.7 30.2 21 25 12 33.6 16.6Z" stroke="url(#main)" stroke-width="1.8"/>
    <path d="M36 8v48" stroke="url(#gold)" stroke-width="1.25"/>
    <path d="M33 27C25 31 19 39 18 57" stroke="#57ddff" stroke-width="2.6" opacity=".78"/>
    <path d="M39 27C47 31 53 39 54 57" stroke="#9b7cff" stroke-width="2.6" opacity=".78"/>
    <path d="M31 29C26 37 27 45 29 62" stroke="#78bfff" stroke-width="1.9" opacity=".52"/>
    <path d="M41 29C46 37 45 45 43 62" stroke="#c69fff" stroke-width="1.9" opacity=".52"/>
    <path d="M36 33C32 40 32.5 48 36 65 39.5 48 40 40 36 33Z" stroke="url(#main)" stroke-width="1.35" opacity=".7"/>
  </g>
  <circle cx="36" cy="24" r="3.8" fill="#07101f" stroke="#d9fbff" stroke-width="1.25"/>
  <circle cx="36" cy="24" r="1.35" fill="#fff"/>
</svg>
